<?xml version="1.0"?><svg id="CGP_Grey_stick_figure_Bild" xmlns="http://www.w3.org/2000/svg" width="343.61mm" height="361.25mm" viewBox="0 0 974 1024.02"><title>CGP_Grey_stick_figure</title><path d="M1,987c1.83.07,3.65.21,5.48.21l244.47,0h7c-5.81-5.18-10.62-9.49-15.47-13.77q-18.74-16.52-37.51-33-28.32-24.94-56.62-49.88Q130,874.36,111.67,858.14q-23.62-20.82-47.26-41.62c-4.25-3.75-8.67-7.33-12.63-11.36a24.35,24.35,0,0,1,3.9-37.05c8.9-5.9,19.54-5.16,28.09,2.33,8.77,7.68,17.48,15.43,26.23,23.14q32.44,28.57,64.88,57.13,23.24,20.49,46.43,41,24,21.15,48,42.23c.49.43,1,.78,1.42,1.06a3.08,3.08,0,0,0,.7,0,.84.84,0,0,0,.41-.27l189-268.23V600.63c-3.81-.52-7.55-1-11.29-1.53A249.15,249.15,0,0,1,366,572.29a261.4,261.4,0,0,1-75.26-59.41,268.72,268.72,0,0,1-44.77-70.56,274.61,274.61,0,0,1-18.45-59.92c-1.64-8.81-2.47-17.77-3.56-26.68-1.64-13.45-1.33-27-.76-40.43a257,257,0,0,1,6.12-44.93,275.62,275.62,0,0,1,23.92-66.45,272.44,272.44,0,0,1,33-49.86,261.27,261.27,0,0,1,50.45-46.72,254.16,254.16,0,0,1,98.69-42.49,251.5,251.5,0,0,1,146.28,14.7C622,96.52,656,122.16,683.73,156a270.27,270.27,0,0,1,50.61,96.06c4.84,16.45,8.43,33.2,9.73,50.34.78,10.28,1.74,20.61,1.6,30.9a279.66,279.66,0,0,1-18.52,97.5,269,269,0,0,1-41.8,72.9c-32.85,40.67-74,69.56-123.82,85.77a228,228,0,0,1-51.66,10.68,17.15,17.15,0,0,0-2.21.52,38.65,38.65,0,0,0-.38,3.85c0,20.83,0,41.66-.06,62.49a10.3,10.3,0,0,0,2.67,7.23q35.31,41.14,70.5,82.39,31,36.26,62.09,72.49,33.94,39.69,67.81,79.43c8.66,10.13,17.29,20.28,26.06,30.32,6.71,7.68,8.74,16.31,5.56,26a22.16,22.16,0,0,1-9.82,12.19L727.76,979q-86.05,0-171.57,0a31,31,0,0,1-5.31-.92c-.66-1.52-1.35-3-2-4.55-6.19-15.41,5.23-32.54,20.9-32.69,6.82-.07,13.63-.66,20.45-1.06,14.46-.85,28.91-1.76,43.37-2.58,9-.51,18-.85,26.94-1.35,3.26-.18,6.5-.63,10.2-1L507.25,743.56c0,3,0,4.78,0,6.61q0,115.48,0,231c0,1.83-.07,3.66-.11,5.49.16,1.36,1.17,1.41,2.19,1.41,6.8,0,13.61,0,20.41,0a12.35,12.35,0,0,0,3.27-1,40.75,40.75,0,0,0,6.29,1q177.66.07,355.32,0h5.1l2.34-4,1,0v3.17h4.21l64.26,0c1.16,0,2.31-.13,3.47-.21v14H1ZM271.9,297.71a9.51,9.51,0,0,0-.73,1.89c-.69,7.79-1.63,15.57-2,23.37a218.88,218.88,0,0,0,4.06,51.65,225.56,225.56,0,0,0,23.79,65.88c19.07,34.59,45.32,62.32,79.1,82.83a203.76,203.76,0,0,0,90.74,29.45,206.23,206.23,0,0,0,56.7-3,210.93,210.93,0,0,0,104.35-53.44,219.91,219.91,0,0,0,57.3-86.66,226.55,226.55,0,0,0,13-58.22,255.5,255.5,0,0,0-.33-45.88c-.22-2.37-.77-4.72-1.22-7.4L680,308.88c0,2.27,0,4.09,0,5.92,0,9,.15,18-.07,27a25.6,25.6,0,0,1-19.67,24.63,38.35,38.35,0,0,1-8.92.68q-60.74.06-121.47,0c-1.83,0-3.66-.06-5.5-.11-11.46-.28-22.1-10-23.38-21.47-.69-6.26-.51-12.62-.78-18.93-.07-1.59.61-3.35-1-4.91-9.47,0-19.13,0-28.78,0A20.48,20.48,0,0,0,468,322c0,1.75,0,3.37,0,5,0,5.17.13,10.34-.1,15.49a25.64,25.64,0,0,1-19.84,24,44,44,0,0,1-9.44.61q-60,.05-120,0-3.25,0-6.5-.12a23.52,23.52,0,0,1-14.5-5.89c-7.09-5.94-9.3-13.94-9.4-22.74s0-17.33,0-26c0-1.48,0-3,0-4.45Zm419.9-24.63a202.15,202.15,0,0,0-13.72-38.6c-17.82-38-44-68.86-79.12-92C566.66,121.26,531,110,492.46,108.2a206.85,206.85,0,0,0-41.3,2.58,204.58,204.58,0,0,0-65.38,22,215.15,215.15,0,0,0-62.32,50.11,225.86,225.86,0,0,0-44.29,80.32c-.94,3-1.62,6-2.47,9.24,2.09,1.33,3.89,2.49,5.71,3.62s3.57,2.15,5.16,3.11c.57-.52.76-.61.79-.73.2-1,.38-1.94.53-2.92,1.49-10,7.07-16.9,16.32-20.31,4.24-1.56,9.13-1.84,13.73-1.86,39.33-.14,78.67-.09,118-.05a79.51,79.51,0,0,1,8,.5c11.39,1.16,18.55,7.59,21.88,18.27,1,3.11,1,6.55,1.17,9.85.18,5,0,9.92,0,15h32.2c0-2.22-.06-4.18,0-6.14.19-5.15.13-10.33.72-15.44a24.93,24.93,0,0,1,18.7-21.07,47.12,47.12,0,0,1,10.4-1q59.25-.1,118.5,0c2.82,0,5.64.28,8.46.5,12.89,1,20.06,10.82,22.06,19.38.51,2.2.89,4.44,1.4,7.06Zm-231,476.41-.69-.41L292.84,987H460.79ZM444.35,342.83a31.66,31.66,0,0,0,.52-3.85q0-28.74,0-57.47a15.68,15.68,0,0,0-.57-3.06,5.23,5.23,0,0,0-1.25-.57c-1.16-.09-2.32-.15-3.49-.15l-126.41.21a.93.93,0,0,0-.45.18,12.53,12.53,0,0,0-.92.85c0,10.11-.06,20.73,0,31.34s-.34,21.52.28,32.51Zm79.65,0H656.25a28.74,28.74,0,0,0,.58-4q0-28.48,0-57a22.38,22.38,0,0,0-.56-3.59,8.9,8.9,0,0,0-1.87-.53q-63.46,0-126.93,0A20.73,20.73,0,0,0,525,278a1,1,0,0,0-.42.24c-.13.1-.24.23-.58.56Z" transform="translate(-1 -59.98)" style="fill:#000"/><path d="M1,1001H975v83H1Z" transform="translate(-1 -59.98)" style="fill:#2c2c2c"/><path d="M975,974v9h-2l-2,0-15-1-6.91-.11L945,981h-2l-8,0-5-1h-1l-4.9-.11c-1.84-1.64-4.06-.67-6.11-.88l-3,0-8-.07-4-1-1,0-8.87-.1c-1.49-1.52-3.39-.79-5.13-.91l-8,0-6-1h-6l-9.05-1,.11.07c-.62-1.56-2-1-3.11-1.07l.1.07L853,973l.09.09.09-2.89,1.29-2.54,6.57-1.73,4,.07,5,.94h1l9,.14,3.08.88,9.89,0,4.05.92,2,0,7.93.07,4.09.89,8.91.06,1,0,5,.95,9,.12c1.07,1.56,2.65.85,4.06.9L949,972l3,.9,1,0,8.94.06,4,1,1,0Z" transform="translate(-1 -59.98)" style="fill:#fafafa"/><path d="M975,987c-1.16.07-2.31.21-3.47.21l-64.26,0h-4.21v-3.17l.09.07.66-4.11,2.21-.09,1,0,7.94,0a2.78,2.78,0,0,0,1,.14l4.16.85,8.89,0,1,.08,5,.87,8,.05,2,.17,3.1.8,7.93,0c4.92,1.39,10,1.21,15,1.09a3,3,0,0,0,.9.13L975,985Z" transform="translate(-1 -59.98)" style="fill:#f6f6f6"/><path d="M975,974l-8-.13a4.78,4.78,0,0,1,0-.79l8-.08Z" transform="translate(-1 -59.98)" style="fill:#717171"/><path d="M975,985l-3.11-.91L973,983l2,0Z" transform="translate(-1 -59.98)" style="fill:#9d9d9d"/><path d="M888,977c1.74.12,3.63-.62,5.13.91l-1.51.5A33.91,33.91,0,0,0,900,979a6,6,0,0,0,2-.95l1,0v2H587.84q-28.47,0-56.94-.07c1-2.05,2.84-1.9,4.67-1.9,5.1,0,10.21,0,15.31,0a31,31,0,0,0,5.31.92q85.65.07,171.57,0l4.31-1.89c.36.3.68.79,1.08.87a13.55,13.55,0,0,0,2.49.09l136.85,0c.17,0,.33,0,.5,0l3.3-.21,0-.55-2.27-.3q0-.45,0-.91l6,1A7.47,7.47,0,0,0,888,977Z" transform="translate(-1 -59.98)" style="fill:#7c7c7c"/><path d="M861,965.89l-6.57,1.73-1.29,2.54L853,967a8.36,8.36,0,0,1,2-.95c2-.37,4-.58,6-.86Q861,965.53,861,965.89Z" transform="translate(-1 -59.98)" style="fill:#797979"/><path d="M858.95,975l9.05,1q0,.43,0,.86A13.85,13.85,0,0,1,858.95,975Z" transform="translate(-1 -59.98)" style="fill:#6b6b6b"/><path d="M893,967.93l-9.89,0A5.43,5.43,0,0,1,883,967l10,.13A4.57,4.57,0,0,1,893,967.93Z" transform="translate(-1 -59.98)" style="fill:#747474"/><path d="M949,972l-9.94-.11A6.05,6.05,0,0,1,939,971l10,.13Q949,971.56,949,972Z" transform="translate(-1 -59.98)" style="fill:#757575"/><path d="M880,967l-9-.14a6.07,6.07,0,0,1,0-.8h8.89A5.74,5.74,0,0,1,880,967Z" transform="translate(-1 -59.98)" style="fill:#707070"/><path d="M935,971l-9-.12a6.45,6.45,0,0,1,0-.81l8.93,0A6,6,0,0,1,935,971Z" transform="translate(-1 -59.98)" style="fill:#737373"/><path d="M920,969.88l-8.91-.06a7.11,7.11,0,0,1,0-.77l9,.05A4.85,4.85,0,0,1,920,969.88Z" transform="translate(-1 -59.98)" style="fill:#707070"/><path d="M962,972.94l-8.94-.06a6.18,6.18,0,0,1,0-.84l8.94.07A5.42,5.42,0,0,1,962,972.94Z" transform="translate(-1 -59.98)" style="fill:#727272"/><path d="M935,971a6,6,0,0,0-.06-.91c1.4.06,3-.67,4.05.9a6.06,6.06,0,0,0,.06.91C937.65,971.84,936.07,972.56,935,971Z" transform="translate(-1 -59.98)" style="fill:#a8a8a8"/><path d="M907,968.94l-7.93-.07a3.92,3.92,0,0,1,0-.75H907A4.3,4.3,0,0,1,907,968.94Z" transform="translate(-1 -59.98)" style="fill:#6c6c6c"/><path d="M868,976.86q0-.43,0-.86h6q0,.45,0,.91l-1,.22Z" transform="translate(-1 -59.98)" style="fill:#696969"/><path d="M962,972.94a5.42,5.42,0,0,0,0-.83l4,.87q0,.46,0,.92Z" transform="translate(-1 -59.98)" style="fill:#999"/><path d="M853,967l.15,3.19-.09,2.89-1-.12-.15-1.13.07-3.73q.06-.48.11-1A2.33,2.33,0,0,1,853,967Z" transform="translate(-1 -59.98)" style="fill:#353535"/><path d="M852.05,967.12q0,.48-.11,1H848l-2-.1.07.07C847.8,966.14,850,967.24,852.05,967.12Z" transform="translate(-1 -59.98)" style="fill:#717171"/><path d="M949,972q0-.44,0-.88l3.08.79q0,.5,0,1Z" transform="translate(-1 -59.98)" style="fill:#989898"/><path d="M880,967a5.74,5.74,0,0,0-.09-.92L883,967a5.43,5.43,0,0,0,.09.92Z" transform="translate(-1 -59.98)" style="fill:#b7b7b7"/><path d="M870,966.89l-5-.94q0-.44,0-.87l5,.95Q870,966.46,870,966.89Z" transform="translate(-1 -59.98)" style="fill:#8f8f8f"/><path d="M926,970.07a6.45,6.45,0,0,0,0,.81l-5-.95q0-.41,0-.83Z" transform="translate(-1 -59.98)" style="fill:#8b8b8b"/><path d="M851,972.9,846,971,846,971l1-.2,4,1.23Q851,972.48,851,972.9Z" transform="translate(-1 -59.98)" style="fill:#737373"/><path d="M907,968.94a4.3,4.3,0,0,0,0-.83l4.06,1a7.11,7.11,0,0,0,0,.77Z" transform="translate(-1 -59.98)" style="fill:#959595"/><path d="M893,967.93a4.57,4.57,0,0,0,0-.82l4,.92q0,.41,0,.82Z" transform="translate(-1 -59.98)" style="fill:#999"/><path d="M865,965.08q0,.44,0,.87l-4-.07q0-.36,0-.72Z" transform="translate(-1 -59.98)" style="fill:#787878"/><path d="M873,977.13l1-.22,2.27.3,0,.55L873,978Q873,977.54,873,977.13Z" transform="translate(-1 -59.98)" style="fill:#e0e0e0"/><path d="M853,973l3.09,1.06C855,973.85,853.57,974.56,853,973Z" transform="translate(-1 -59.98)" style="fill:#767676"/><path d="M855.95,974c1.13.07,2.49-.49,3.11,1.07Z" transform="translate(-1 -59.98)" style="fill:#6f6f6f"/><path d="M843.23,969l2.8-1L846,968a4.22,4.22,0,0,1-.11,1,2.08,2.08,0,0,0-.85.13l-1-.06Z" transform="translate(-1 -59.98)" style="fill:#6f6f6f"/><path d="M846,971l-2-1-.05,0,1.05-.15a3.55,3.55,0,0,0,.93.15l0,1Z" transform="translate(-1 -59.98)" style="fill:#6c6c6c"/><path d="M897,968.85q0-.41,0-.82l2,.09a3.92,3.92,0,0,0,0,.75Z" transform="translate(-1 -59.98)" style="fill:#8b8b8b"/><path d="M870,966.89q0-.43,0-.86l1,.06a6.07,6.07,0,0,0,0,.8Z" transform="translate(-1 -59.98)" style="fill:#868686"/><path d="M851,972.9q0-.42,0-.85.43-.14.86-.25l.15,1.13Z" transform="translate(-1 -59.98)" style="fill:#5c5c5c"/><path d="M966,973.9q0-.46,0-.92l1,.1a4.78,4.78,0,0,0,0,.79Z" transform="translate(-1 -59.98)" style="fill:#919191"/><path d="M921,969.1q0,.41,0,.83l-1,0a4.85,4.85,0,0,0,0-.77Z" transform="translate(-1 -59.98)" style="fill:#8a8a8a"/><path d="M952,972.9q0-.5,0-1a3.63,3.63,0,0,1,1,.13,6.18,6.18,0,0,0,0,.84Z" transform="translate(-1 -59.98)" style="fill:#949494"/><path d="M843.23,969l.74,0q0,.52,0,1l.05,0Z" transform="translate(-1 -59.98)" style="fill:#626262"/><path d="M902,984l-2.34,4h-5.1q-177.66,0-355.32,0a40.75,40.75,0,0,1-6.29-1l-1-5,189.88,0H901.57Z" transform="translate(-1 -59.98)" style="fill:#414141"/><path d="M902,984l-.47-2H721.91L532,982l-1-1,196.92,0H896.88c1.94,0,3.88.08,5.75.13l.53,3-.09-.07Z" transform="translate(-1 -59.98)"/><path d="M531,981l1,1,1,5a12.34,12.34,0,0,1-3.27,1c-6.8.09-13.61.05-20.41,0-1,0-2-.05-2.19-1.41,2.29.17,4.58.46,6.87.49,5.43.07,10.86,0,16.16,0V981H531Z" transform="translate(-1 -59.98)" style="fill:#212121"/><path d="M971,984c-5,.12-10.07.3-15-1.09V982l15,1Q971,983.48,971,984Z" transform="translate(-1 -59.98)" style="fill:#686868"/><path d="M902,978a6,6,0,0,1-2,.95,33.91,33.91,0,0,1-8.34-.54l1.51-.5Z" transform="translate(-1 -59.98)" style="fill:#505050"/><path d="M920.1,980.9l-4.16-.85,2.05-1c2.05.21,4.27-.76,6.11.88Z" transform="translate(-1 -59.98)" style="fill:#a2a2a2"/><path d="M920.1,980.9l4-1,4.9.11q0,.47,0,.93Z" transform="translate(-1 -59.98)" style="fill:#656565"/><path d="M888,977a7.47,7.47,0,0,1-8,0Z" transform="translate(-1 -59.98)" style="fill:#666"/><path d="M935,981.88l-5-.87q0-.51,0-1l5,1Q935,981.42,935,981.88Z" transform="translate(-1 -59.98)" style="fill:gray"/><path d="M956,982v.86l-7.93,0,1-1Z" transform="translate(-1 -59.98)" style="fill:#686868"/><path d="M915,979.91l-7.94,0a5.1,5.1,0,0,1,0-.82l0-.13,8,.07Q915,979.45,915,979.91Z" transform="translate(-1 -59.98)" style="fill:#646464"/><path d="M935,981.88q0-.46,0-.92l8,0q0,.47,0,.93Z" transform="translate(-1 -59.98)" style="fill:#656565"/><path d="M903,980v-2l4,1,0,.13-1,.85-2.21.09A1.82,1.82,0,0,1,903,980Z" transform="translate(-1 -59.98)" style="fill:#8e8e8e"/><path d="M949.09,981.91l-1,1-3.1-.8,0-1.1Z" transform="translate(-1 -59.98)" style="fill:#959595"/><path d="M915,979.91q0-.46,0-.91l3,0-2.05,1A2.78,2.78,0,0,1,915,979.91Z" transform="translate(-1 -59.98)" style="fill:#777"/><path d="M945,981l0,1.1-2-.17q0-.47,0-.93Z" transform="translate(-1 -59.98)" style="fill:#7e7e7e"/><path d="M971,984q0-.48,0-1l2,0-1.12,1.11A3,3,0,0,1,971,984Z" transform="translate(-1 -59.98)" style="fill:#818181"/><path d="M930,980q0,.51,0,1l-1-.08q0-.46,0-.93Z" transform="translate(-1 -59.98)" style="fill:#787878"/><path d="M903,980a1.82,1.82,0,0,0,.8,0l-.66,4.11-.53-3c-1.87,0-3.81-.13-5.75-.13H727.95L531,981h-.85l.72-1.11q28.47,0,56.94.07Z" transform="translate(-1 -59.98)" style="fill:#3e3e3e"/><path d="M906,979.91l1-.85a5.1,5.1,0,0,0,0,.82Z" transform="translate(-1 -59.98)" style="fill:#868686"/><path d="M851.87,971.81q-.43.11-.86.25l-4-1.23-1-.8a3.55,3.55,0,0,1-.93-.15q0-.41,0-.82a2.08,2.08,0,0,1,.85-.13l2.14-.87h3.95Z" transform="translate(-1 -59.98)" style="fill:#eee"/><path d="M848,968.06l-2.14.87a4.22,4.22,0,0,0,.11-1Z" transform="translate(-1 -59.98)" style="fill:#dfdfdf"/><path d="M845.94,970l1,.8-1,.2Z" transform="translate(-1 -59.98)" style="fill:#dfdfdf"/><path d="M845,969.06q0,.41,0,.82L844,970q0-.52,0-1Z" transform="translate(-1 -59.98)" style="fill:#dfdfdf"/></svg>